<?xml version="1.0" encoding="UTF-8" standalone="no"?>
<!-- Created with Inkscape (http://www.inkscape.org/) -->

<svg
   version="1.1"
   id="svg2"
   xml:space="preserve"
   width="1047.9517"
   height="376.98001"
   viewBox="0 0 1047.9517 376.98001"
   sodipodi:docname="ls_vs_fft.svg"
   inkscape:version="1.1.2 (0a00cf5339, 2022-02-04)"
   xmlns:inkscape="http://www.inkscape.org/namespaces/inkscape"
   xmlns:sodipodi="http://sodipodi.sourceforge.net/DTD/sodipodi-0.dtd"
   xmlns="http://www.w3.org/2000/svg"
   xmlns:svg="http://www.w3.org/2000/svg"><defs
     id="defs6"><clipPath
       clipPathUnits="userSpaceOnUse"
       id="clipPath96"><path
         d="m 71.29375,58.85625 h 346.585 v 193.96 h -346.585 z"
         id="path94" /></clipPath><clipPath
       clipPathUnits="userSpaceOnUse"
       id="clipPath106"><path
         d="m 71.29375,58.85625 h 346.585 v 193.96 h -346.585 z"
         id="path104" /></clipPath><clipPath
       clipPathUnits="userSpaceOnUse"
       id="clipPath116"><path
         d="m 71.29375,58.85625 h 346.585 v 193.96 h -346.585 z"
         id="path114" /></clipPath><clipPath
       clipPathUnits="userSpaceOnUse"
       id="clipPath216"><path
         d="m 432.17875,58.85625 h 346.585 v 193.96 h -346.585 z"
         id="path214" /></clipPath><clipPath
       clipPathUnits="userSpaceOnUse"
       id="clipPath226"><path
         d="m 432.17875,58.85625 h 346.585 v 193.96 h -346.585 z"
         id="path224" /></clipPath><clipPath
       clipPathUnits="userSpaceOnUse"
       id="clipPath236"><path
         d="m 432.17875,58.85625 h 346.585 v 193.96 h -346.585 z"
         id="path234" /></clipPath></defs><sodipodi:namedview
     id="namedview4"
     pagecolor="#ffffff"
     bordercolor="#666666"
     borderopacity="1.0"
     inkscape:pageshadow="2"
     inkscape:pageopacity="0.0"
     inkscape:pagecheckerboard="0"
     showgrid="false"
     inkscape:zoom="1.1594046"
     inkscape:cx="523.97583"
     inkscape:cy="188.89005"
     inkscape:window-width="2560"
     inkscape:window-height="1357"
     inkscape:window-x="2560"
     inkscape:window-y="0"
     inkscape:window-maximized="1"
     inkscape:current-layer="g8" /><g
     id="g8"
     inkscape:groupmode="layer"
     inkscape:label="ls_vs_fft"
     transform="matrix(1.3333333,0,0,-1.3333333,0,376.98)"><path
       d="M 0,0 H 785.96375 V 282.735 H 0 Z"
       style="fill:#ffffff;fill-opacity:1;fill-rule:nonzero;stroke:none"
       id="path10" /><path
       d="m 71.29375,58.85625 h 346.585 v 193.96 h -346.585 z"
       style="fill:#ffffff;fill-opacity:1;fill-rule:nonzero;stroke:none"
       id="path12" /><path
       d="m 114.61687,58.85625 v -3.5"
       style="fill:#262626;fill-opacity:1;fill-rule:nonzero;stroke:#262626;stroke-width:0.8;stroke-linecap:butt;stroke-linejoin:round;stroke-miterlimit:10;stroke-dasharray:none;stroke-opacity:1"
       id="path14" /><g
       id="g16"
       transform="translate(108.2575,36.653125)"><text
         transform="scale(1,-1)"
         style="font-variant:normal;font-weight:normal;font-size:20px;font-family:'DejaVu Serif';-inkscape-font-specification:DejaVuSerif;writing-mode:lr-tb;fill:#262626;fill-opacity:1;fill-rule:nonzero;stroke:none"
         id="text20"><tspan
           x="0"
           y="0"
           id="tspan18">0</tspan></text></g><path
       d="m 201.26312,58.85625 v -3.5"
       style="fill:#262626;fill-opacity:1;fill-rule:nonzero;stroke:#262626;stroke-width:0.8;stroke-linecap:butt;stroke-linejoin:round;stroke-miterlimit:10;stroke-dasharray:none;stroke-opacity:1"
       id="path22" /><g
       id="g24"
       transform="translate(194.90375,36.653125)"><text
         transform="scale(1,-1)"
         style="font-variant:normal;font-weight:normal;font-size:20px;font-family:'DejaVu Serif';-inkscape-font-specification:DejaVuSerif;writing-mode:lr-tb;fill:#262626;fill-opacity:1;fill-rule:nonzero;stroke:none"
         id="text28"><tspan
           x="0"
           y="0"
           id="tspan26">1</tspan></text></g><path
       d="m 287.90937,58.85625 v -3.5"
       style="fill:#262626;fill-opacity:1;fill-rule:nonzero;stroke:#262626;stroke-width:0.8;stroke-linecap:butt;stroke-linejoin:round;stroke-miterlimit:10;stroke-dasharray:none;stroke-opacity:1"
       id="path30" /><g
       id="g32"
       transform="translate(281.55,36.653125)"><text
         transform="scale(1,-1)"
         style="font-variant:normal;font-weight:normal;font-size:20px;font-family:'DejaVu Serif';-inkscape-font-specification:DejaVuSerif;writing-mode:lr-tb;fill:#262626;fill-opacity:1;fill-rule:nonzero;stroke:none"
         id="text36"><tspan
           x="0"
           y="0"
           id="tspan34">2</tspan></text></g><path
       d="m 374.55563,58.85625 v -3.5"
       style="fill:#262626;fill-opacity:1;fill-rule:nonzero;stroke:#262626;stroke-width:0.8;stroke-linecap:butt;stroke-linejoin:round;stroke-miterlimit:10;stroke-dasharray:none;stroke-opacity:1"
       id="path38" /><g
       id="g40"
       transform="translate(368.19625,36.653125)"><text
         transform="scale(1,-1)"
         style="font-variant:normal;font-weight:normal;font-size:20px;font-family:'DejaVu Serif';-inkscape-font-specification:DejaVuSerif;writing-mode:lr-tb;fill:#262626;fill-opacity:1;fill-rule:nonzero;stroke:none"
         id="text44"><tspan
           x="0"
           y="0"
           id="tspan42">3</tspan></text></g><g
       id="g46"
       transform="translate(185.08625,12.090625)"><text
         transform="scale(1,-1)"
         style="font-variant:normal;font-weight:normal;font-size:22px;font-family:'DejaVu Serif';-inkscape-font-specification:DejaVuSerif;writing-mode:lr-tb;fill:#262626;fill-opacity:1;fill-rule:nonzero;stroke:none"
         id="text50"><tspan
           x="0 15.268 25.784 38.807999 52.888 67.056 80.080002 94.248001 106.568"
           y="0"
           sodipodi:role="line"
           id="tspan48">Frequency</tspan></text></g><path
       d="m 71.29375,58.85625 h -3.5"
       style="fill:#262626;fill-opacity:1;fill-rule:nonzero;stroke:#262626;stroke-width:0.8;stroke-linecap:butt;stroke-linejoin:round;stroke-miterlimit:10;stroke-dasharray:none;stroke-opacity:1"
       id="path52" /><g
       id="g54"
       transform="translate(32.496875,51.254687)"><text
         transform="scale(1,-1)"
         style="font-variant:normal;font-weight:normal;font-size:20px;font-family:'DejaVu Serif';-inkscape-font-specification:DejaVuSerif;writing-mode:lr-tb;fill:#262626;fill-opacity:1;fill-rule:nonzero;stroke:none"
         id="text58"><tspan
           x="0 12.72 19.08"
           y="0"
           sodipodi:role="line"
           id="tspan56">0.0</tspan></text></g><path
       d="m 71.29375,118.98567 h -3.5"
       style="fill:#262626;fill-opacity:1;fill-rule:nonzero;stroke:#262626;stroke-width:0.8;stroke-linecap:butt;stroke-linejoin:round;stroke-miterlimit:10;stroke-dasharray:none;stroke-opacity:1"
       id="path60" /><g
       id="g62"
       transform="translate(32.496875,111.38411)"><text
         transform="scale(1,-1)"
         style="font-variant:normal;font-weight:normal;font-size:20px;font-family:'DejaVu Serif';-inkscape-font-specification:DejaVuSerif;writing-mode:lr-tb;fill:#262626;fill-opacity:1;fill-rule:nonzero;stroke:none"
         id="text66"><tspan
           x="0 12.72 19.08"
           y="0"
           sodipodi:role="line"
           id="tspan64">0.5</tspan></text></g><path
       d="m 71.29375,179.11509 h -3.5"
       style="fill:#262626;fill-opacity:1;fill-rule:nonzero;stroke:#262626;stroke-width:0.8;stroke-linecap:butt;stroke-linejoin:round;stroke-miterlimit:10;stroke-dasharray:none;stroke-opacity:1"
       id="path68" /><g
       id="g70"
       transform="translate(32.496875,171.51353)"><text
         transform="scale(1,-1)"
         style="font-variant:normal;font-weight:normal;font-size:20px;font-family:'DejaVu Serif';-inkscape-font-specification:DejaVuSerif;writing-mode:lr-tb;fill:#262626;fill-opacity:1;fill-rule:nonzero;stroke:none"
         id="text74"><tspan
           x="0 12.72 19.08"
           y="0"
           sodipodi:role="line"
           id="tspan72">1.0</tspan></text></g><path
       d="m 71.29375,239.24451 h -3.5"
       style="fill:#262626;fill-opacity:1;fill-rule:nonzero;stroke:#262626;stroke-width:0.8;stroke-linecap:butt;stroke-linejoin:round;stroke-miterlimit:10;stroke-dasharray:none;stroke-opacity:1"
       id="path76" /><g
       id="g78"
       transform="translate(32.496875,231.64295)"><text
         transform="scale(1,-1)"
         style="font-variant:normal;font-weight:normal;font-size:20px;font-family:'DejaVu Serif';-inkscape-font-specification:DejaVuSerif;writing-mode:lr-tb;fill:#262626;fill-opacity:1;fill-rule:nonzero;stroke:none"
         id="text82"><tspan
           x="0 12.72 19.08"
           y="0"
           sodipodi:role="line"
           id="tspan80">1.5</tspan></text></g><g
       id="g84"
       transform="rotate(90,-45.005625,68.611875)"><text
         transform="scale(1,-1)"
         style="font-variant:normal;font-weight:normal;font-size:22px;font-family:'DejaVu Serif';-inkscape-font-specification:DejaVuSerif;writing-mode:lr-tb;fill:#262626;fill-opacity:1;fill-rule:nonzero;stroke:none"
         id="text88"><tspan
           x="0 17.643999 30.667999 44.835999 56.122002 63.161999 72.005997"
           y="0"
           sodipodi:role="line"
           id="tspan86">Density</tspan></text></g><g
       id="g90"><g
         id="g92"
         clip-path="url(#clipPath96)"><path
           d="m 145.13773,58.896013 2.79727,0.190613 1.67835,0.3405 1.11891,0.414935 1.1189,0.641153 1.11891,0.943519 1.1189,1.324763 1.11891,1.778808 1.1189,2.29093 1.11891,2.840675 1.1189,3.407093 1.11891,3.974583 1.67835,7.015285 1.67836,8.281666 1.67836,9.573854 1.67836,10.8473 2.2378,16.11832 6.15398,45.89935 2.23781,14.42464 1.67836,9.62794 1.67836,8.51668 1.67835,7.23926 1.11891,4.023 1.1189,3.35234 1.11891,2.71875 1.1189,2.18389 1.11891,1.79168 1.67835,2.27542 2.79726,3.40183 1.67836,1.78245 1.11891,0.96535 1.1189,0.72781 1.11891,0.46148 1.1189,0.18343 1.11891,-0.0948 1.1189,-0.36236 1.11891,-0.60291 1.67835,-1.23512 2.79726,-2.22332 1.67836,-1.0405 2.79726,-1.60098 1.11891,-1.00527 1.1189,-1.45367 1.11891,-2.00771 1.1189,-2.60036 1.11891,-3.17075 1.67835,-5.69798 1.67836,-6.67849 1.67836,-7.63896 1.67836,-8.69236 2.23781,-13.17054 6.71342,-41.42344 3.91617,-23.4531 3.91617,-23.748429 1.67836,-8.821354 1.1189,-5.072609 1.1189,-4.34294 1.11891,-3.595711 1.1189,-2.873546 1.11891,-2.211435 1.1189,-1.634751 1.11891,-1.157864 1.1189,-0.783943 1.11891,-0.506353 1.67836,-0.41534 2.2378,-0.210783 1.11891,-0.03805 v 0"
           style="fill:none;stroke:#808080;stroke-width:3;stroke-linecap:round;stroke-linejoin:round;stroke-miterlimit:10;stroke-dasharray:none;stroke-opacity:1"
           id="path98" /></g></g><g
       id="g100"><g
         id="g102"
         clip-path="url(#clipPath106)"><path
           d="m 145.14433,58.974047 1.63896,0.197484 1.63896,0.434248 1.09264,0.50167 1.09265,0.733953 1.09264,1.012906 1.09264,1.32142 1.09264,1.636748 1.63896,3.019118 1.63896,3.678933 1.09264,2.883737 1.09265,3.350836 1.09264,3.962375 1.09264,4.698886 1.09264,5.474913 1.63896,9.423016 7.10217,43.75951 1.63896,12.06827 2.73161,20.56487 1.09264,6.93599 1.09264,5.87757 2.18528,10.00207 1.63896,7.90538 2.73161,13.89304 1.09264,4.16939 0.54632,1.52858 0.54632,1.14531 0.54632,0.79442 0.54632,0.50565 1.09264,0.49264 1.09264,0.42071 0.54632,0.36953 1.09264,1.20013 2.73161,3.83313 0.54632,0.39058 0.54632,0.16472 0.54632,-0.0523 1.09264,-0.57912 1.09264,-0.73167 0.54632,-0.22832 0.54632,-0.0566 0.54632,0.14395 0.54633,0.34245 1.09264,1.12313 1.09264,1.23674 0.54632,0.4599 0.54632,0.26605 0.54632,0.0352 0.54632,-0.20233 0.54632,-0.41564 1.09264,-1.24641 1.09264,-1.29793 0.54632,-0.49271 0.54632,-0.3325 0.54632,-0.16739 1.09265,0.0193 1.09264,0.003 0.54632,-0.23338 0.54632,-0.50267 0.54632,-0.83113 0.54632,-1.18863 1.09264,-3.39913 1.63896,-6.74681 1.63896,-6.80806 1.63897,-5.84468 1.63896,-5.93805 1.09264,-4.95015 1.09264,-6.10962 1.63896,-10.92143 2.73161,-18.63822 5.4632,-34.31773 3.27793,-23.42209 1.63896,-9.819596 1.63896,-7.981777 1.63896,-6.611763 1.63896,-5.750059 1.63897,-5.02702 1.09264,-2.868752 1.09264,-2.406051 1.09264,-1.91202 1.09264,-1.433834 1.09264,-1.012873 1.09264,-0.673653 1.09265,-0.421886 1.63896,-0.328712 v 0"
           style="fill:none;stroke:#e41a1c;stroke-width:3;stroke-linecap:butt;stroke-linejoin:round;stroke-miterlimit:10;stroke-dasharray:11.1, 4.8;stroke-dashoffset:0;stroke-opacity:1"
           id="path108" /></g></g><g
       id="g110"><g
         id="g112"
         clip-path="url(#clipPath116)"><path
           d="m 143.18751,58.914642 2.29986,0.164047 1.7249,0.301787 1.7249,0.572038 1.14993,0.588442 1.14994,0.790075 1.14993,1.019389 1.14993,1.280614 1.14994,1.590054 1.14993,1.975705 1.14993,2.467579 1.14993,3.079659 1.14994,3.791239 1.14993,4.540331 1.7249,8.085016 1.7249,9.222552 2.29986,13.622721 1.7249,11.60161 1.7249,13.23974 4.02477,32.51647 1.14993,7.68064 1.7249,9.77015 3.4498,17.40129 1.72489,7.85508 1.14994,4.07658 1.14993,2.86525 1.14993,1.8343 3.4498,4.24367 4.02477,6.52757 2.29986,3.09196 1.14993,2.0172 2.87484,5.66642 0.57496,0.70789 0.57497,0.40571 0.57497,0.0726 0.57496,-0.26053 0.57497,-0.56317 1.14993,-1.79091 2.29987,-4.17274 1.7249,-2.41473 1.14993,-1.55476 1.14993,-1.90662 1.14993,-2.37562 2.87484,-6.44379 3.44979,-6.82367 1.14994,-3.46981 1.14993,-4.5564 1.7249,-8.3422 2.87483,-14.37039 2.87483,-14.14579 1.7249,-9.79594 5.1747,-30.65798 2.87483,-16.71454 4.02477,-24.709862 1.14993,-5.957729 1.14993,-5.047359 1.14993,-4.132901 1.14994,-3.323099 1.14993,-2.661888 1.14993,-2.139417 1.14993,-1.719532 1.14994,-1.366028 1.14993,-1.057023 1.14993,-0.786341 1.14994,-0.557018 1.72489,-0.505778 1.7249,-0.243919 1.14994,-0.07846 v 0"
           style="fill:none;stroke:#377eb8;stroke-width:3;stroke-linecap:butt;stroke-linejoin:round;stroke-miterlimit:10;stroke-dasharray:11.1, 4.8;stroke-dashoffset:0;stroke-opacity:1"
           id="path118" /></g></g><g
       id="g120"><path
         d="m 71.29375,58.85625 v 193.96"
         style="fill:none;stroke:#262626;stroke-width:0.8;stroke-linecap:square;stroke-linejoin:miter;stroke-miterlimit:10;stroke-dasharray:none;stroke-opacity:1"
         id="path122" /><path
         d="m 417.87875,58.85625 v 193.96"
         style="fill:none;stroke:#262626;stroke-width:0.8;stroke-linecap:square;stroke-linejoin:miter;stroke-miterlimit:10;stroke-dasharray:none;stroke-opacity:1"
         id="path124" /><path
         d="m 71.29375,58.85625 h 346.585"
         style="fill:none;stroke:#262626;stroke-width:0.8;stroke-linecap:square;stroke-linejoin:miter;stroke-miterlimit:10;stroke-dasharray:none;stroke-opacity:1"
         id="path126" /><path
         d="m 71.29375,252.81625 h 346.585"
         style="fill:none;stroke:#262626;stroke-width:0.8;stroke-linecap:square;stroke-linejoin:miter;stroke-miterlimit:10;stroke-dasharray:none;stroke-opacity:1"
         id="path128" /><g
         id="g130"
         transform="translate(143.89875,258.81625)"><text
           transform="scale(1,-1)"
           style="font-variant:normal;font-weight:normal;font-size:22px;font-family:'DejaVu Serif';-inkscape-font-specification:DejaVuSerif;writing-mode:lr-tb;fill:#262626;fill-opacity:1;fill-rule:nonzero;stroke:none"
           id="text134"><tspan
             x="0 15.268 29.436001 36.476002 43.515999 55.945999 62.942001 76.185997 90.265999 101.552 114.576 125.092 137.522 150.54601 164.62601 171.62199 186.29601"
             y="0"
             sodipodi:role="line"
             id="tspan132">Fully observed TS</tspan></text></g><path
         d="m 310.71,159.15062 h 94.56875 c 2.4,0 3.6,1.2 3.6,3.6 v 77.46563 c 0,2.4 -1.2,3.6 -3.6,3.6 H 310.71 c -2.4,0 -3.6,-1.2 -3.6,-3.6 v -77.46563 c 0,-2.4 1.2,-3.6 3.6,-3.6 z"
         style="fill:#ffffff;fill-opacity:0.8;fill-rule:nonzero;stroke:#cccccc;stroke-width:1;stroke-linecap:butt;stroke-linejoin:miter;stroke-miterlimit:10;stroke-dasharray:none;stroke-opacity:0.8"
         id="path136" /><path
         d="m 314.31,229.24437 h 18 18"
         style="fill:none;stroke:#808080;stroke-width:3;stroke-linecap:round;stroke-linejoin:round;stroke-miterlimit:10;stroke-dasharray:none;stroke-opacity:1"
         id="path138" /><g
         id="g140"
         transform="translate(364.71,222.94437)"><text
           transform="scale(1,-1)"
           style="font-variant:normal;font-weight:normal;font-size:18px;font-family:'DejaVu Serif';-inkscape-font-specification:DejaVuSerif;writing-mode:lr-tb;fill:#262626;fill-opacity:1;fill-rule:nonzero;stroke:none"
           id="text144"><tspan
             x="0 14.382"
             y="0"
             sodipodi:role="line"
             id="tspan142">GT</tspan></text></g><path
         d="m 314.31,202.8225 h 18 18"
         style="fill:none;stroke:#e41a1c;stroke-width:3;stroke-linecap:butt;stroke-linejoin:round;stroke-miterlimit:10;stroke-dasharray:11.1, 4.8;stroke-dashoffset:0;stroke-opacity:1"
         id="path146" /><g
         id="g148"
         transform="translate(364.71,196.5225)"><text
           transform="scale(1,-1)"
           style="font-variant:normal;font-weight:normal;font-size:18px;font-family:'DejaVu Serif';-inkscape-font-specification:DejaVuSerif;writing-mode:lr-tb;fill:#262626;fill-opacity:1;fill-rule:nonzero;stroke:none"
           id="text152"><tspan
             x="0 11.952"
             y="0"
             sodipodi:role="line"
             id="tspan150">LS</tspan></text></g><path
         d="m 314.31,176.40062 h 18 18"
         style="fill:none;stroke:#377eb8;stroke-width:3;stroke-linecap:butt;stroke-linejoin:round;stroke-miterlimit:10;stroke-dasharray:11.1, 4.8;stroke-dashoffset:0;stroke-opacity:1"
         id="path154" /><g
         id="g156"
         transform="translate(364.71,170.10062)"><text
           transform="scale(1,-1)"
           style="font-variant:normal;font-weight:normal;font-size:18px;font-family:'DejaVu Serif';-inkscape-font-specification:DejaVuSerif;writing-mode:lr-tb;fill:#262626;fill-opacity:1;fill-rule:nonzero;stroke:none"
           id="text160"><tspan
             x="0 12.492 24.983999"
             y="0"
             sodipodi:role="line"
             id="tspan158">FFT</tspan></text></g><path
         d="m 432.17875,58.85625 h 346.585 v 193.96 h -346.585 z"
         style="fill:#ffffff;fill-opacity:1;fill-rule:nonzero;stroke:none"
         id="path162" /><path
         d="m 475.50187,58.85625 v -3.5"
         style="fill:#262626;fill-opacity:1;fill-rule:nonzero;stroke:#262626;stroke-width:0.8;stroke-linecap:butt;stroke-linejoin:round;stroke-miterlimit:10;stroke-dasharray:none;stroke-opacity:1"
         id="path164" /><g
         id="g166"
         transform="translate(469.1425,36.653125)"><text
           transform="scale(1,-1)"
           style="font-variant:normal;font-weight:normal;font-size:20px;font-family:'DejaVu Serif';-inkscape-font-specification:DejaVuSerif;writing-mode:lr-tb;fill:#262626;fill-opacity:1;fill-rule:nonzero;stroke:none"
           id="text170"><tspan
             x="0"
             y="0"
             id="tspan168">0</tspan></text></g><path
         d="m 562.14812,58.85625 v -3.5"
         style="fill:#262626;fill-opacity:1;fill-rule:nonzero;stroke:#262626;stroke-width:0.8;stroke-linecap:butt;stroke-linejoin:round;stroke-miterlimit:10;stroke-dasharray:none;stroke-opacity:1"
         id="path172" /><g
         id="g174"
         transform="translate(555.78875,36.653125)"><text
           transform="scale(1,-1)"
           style="font-variant:normal;font-weight:normal;font-size:20px;font-family:'DejaVu Serif';-inkscape-font-specification:DejaVuSerif;writing-mode:lr-tb;fill:#262626;fill-opacity:1;fill-rule:nonzero;stroke:none"
           id="text178"><tspan
             x="0"
             y="0"
             id="tspan176">1</tspan></text></g><path
         d="m 648.79438,58.85625 v -3.5"
         style="fill:#262626;fill-opacity:1;fill-rule:nonzero;stroke:#262626;stroke-width:0.8;stroke-linecap:butt;stroke-linejoin:round;stroke-miterlimit:10;stroke-dasharray:none;stroke-opacity:1"
         id="path180" /><g
         id="g182"
         transform="translate(642.435,36.653125)"><text
           transform="scale(1,-1)"
           style="font-variant:normal;font-weight:normal;font-size:20px;font-family:'DejaVu Serif';-inkscape-font-specification:DejaVuSerif;writing-mode:lr-tb;fill:#262626;fill-opacity:1;fill-rule:nonzero;stroke:none"
           id="text186"><tspan
             x="0"
             y="0"
             id="tspan184">2</tspan></text></g><path
         d="m 735.44062,58.85625 v -3.5"
         style="fill:#262626;fill-opacity:1;fill-rule:nonzero;stroke:#262626;stroke-width:0.8;stroke-linecap:butt;stroke-linejoin:round;stroke-miterlimit:10;stroke-dasharray:none;stroke-opacity:1"
         id="path188" /><g
         id="g190"
         transform="translate(729.08125,36.653125)"><text
           transform="scale(1,-1)"
           style="font-variant:normal;font-weight:normal;font-size:20px;font-family:'DejaVu Serif';-inkscape-font-specification:DejaVuSerif;writing-mode:lr-tb;fill:#262626;fill-opacity:1;fill-rule:nonzero;stroke:none"
           id="text194"><tspan
             x="0"
             y="0"
             id="tspan192">3</tspan></text></g><g
         id="g196"
         transform="translate(545.97125,12.090625)"><text
           transform="scale(1,-1)"
           style="font-variant:normal;font-weight:normal;font-size:22px;font-family:'DejaVu Serif';-inkscape-font-specification:DejaVuSerif;writing-mode:lr-tb;fill:#262626;fill-opacity:1;fill-rule:nonzero;stroke:none"
           id="text200"><tspan
             x="0 15.268 25.784 38.807999 52.888 67.056 80.080002 94.248001 106.568"
             y="0"
             sodipodi:role="line"
             id="tspan198">Frequency</tspan></text></g><path
         d="m 432.17875,58.85625 h -3.5"
         style="fill:#262626;fill-opacity:1;fill-rule:nonzero;stroke:#262626;stroke-width:0.8;stroke-linecap:butt;stroke-linejoin:round;stroke-miterlimit:10;stroke-dasharray:none;stroke-opacity:1"
         id="path202" /><path
         d="m 432.17875,118.98567 h -3.5"
         style="fill:#262626;fill-opacity:1;fill-rule:nonzero;stroke:#262626;stroke-width:0.8;stroke-linecap:butt;stroke-linejoin:round;stroke-miterlimit:10;stroke-dasharray:none;stroke-opacity:1"
         id="path204" /><path
         d="m 432.17875,179.11509 h -3.5"
         style="fill:#262626;fill-opacity:1;fill-rule:nonzero;stroke:#262626;stroke-width:0.8;stroke-linecap:butt;stroke-linejoin:round;stroke-miterlimit:10;stroke-dasharray:none;stroke-opacity:1"
         id="path206" /><path
         d="m 432.17875,239.24451 h -3.5"
         style="fill:#262626;fill-opacity:1;fill-rule:nonzero;stroke:#262626;stroke-width:0.8;stroke-linecap:butt;stroke-linejoin:round;stroke-miterlimit:10;stroke-dasharray:none;stroke-opacity:1"
         id="path208" /></g><g
       id="g210"><g
         id="g212"
         clip-path="url(#clipPath216)"><path
           d="m 506.02273,58.896013 2.79727,0.190613 1.67835,0.3405 1.11891,0.414935 1.1189,0.641153 1.11891,0.943519 1.1189,1.324763 1.11891,1.778808 1.1189,2.29093 1.11891,2.840675 1.1189,3.407093 1.11891,3.974583 1.67835,7.015285 1.67836,8.281666 1.67836,9.573854 1.67836,10.8473 2.23781,16.11832 6.15397,45.89935 2.23781,14.42464 1.67836,9.62794 1.67835,8.51668 1.67836,7.23926 1.11891,4.023 1.1189,3.35234 1.11891,2.71875 1.1189,2.18389 1.11891,1.79168 1.67835,2.27542 2.79727,3.40183 1.67835,1.78245 1.11891,0.96535 1.1189,0.72781 1.11891,0.46148 1.1189,0.18343 1.11891,-0.0948 1.1189,-0.36236 1.11891,-0.60291 1.67835,-1.23512 2.79727,-2.22332 1.67835,-1.0405 2.79726,-1.60098 1.11891,-1.00527 1.1189,-1.45367 1.11891,-2.00771 1.1189,-2.60036 1.11891,-3.17075 1.67835,-5.69798 1.67836,-6.67849 1.67836,-7.63896 1.67836,-8.69236 2.23781,-13.17054 6.71342,-41.42344 3.91617,-23.4531 3.91617,-23.748429 1.67836,-8.821354 1.1189,-5.072609 1.1189,-4.34294 1.11891,-3.595711 1.1189,-2.873546 1.11891,-2.211435 1.1189,-1.634751 1.11891,-1.157864 1.1189,-0.783943 1.11891,-0.506353 1.67836,-0.41534 2.23781,-0.210783 1.1189,-0.03805 v 0"
           style="fill:none;stroke:#808080;stroke-width:3;stroke-linecap:round;stroke-linejoin:round;stroke-miterlimit:10;stroke-dasharray:none;stroke-opacity:1"
           id="path218" /></g></g><g
       id="g220"><g
         id="g222"
         clip-path="url(#clipPath226)"><path
           d="m 482.52598,58.863254 8.15911,0.126678 8.15911,0.456769 4.07955,0.297288 2.03977,0.265748 2.03978,0.494492 2.03978,0.897802 2.03977,1.506355 2.03978,2.331491 2.03977,3.37197 2.03978,4.617184 2.03978,6.033786 2.03977,7.541377 2.03978,9.006956 2.03977,10.28326 2.03978,11.27218 4.07955,24.31355 4.07956,24.82102 2.03977,11.86658 2.03978,11.12287 2.03978,10.1291 2.03977,8.88803 2.03978,7.41399 2.03977,5.81008 2.03978,4.27372 2.03978,2.99796 2.03977,2.06922 2.03978,1.46041 2.03977,1.09167 2.03978,0.86771 2.03978,0.67636 2.03977,0.40106 2.03978,-0.0436 2.03978,-0.70553 2.03977,-1.62375 2.03978,-2.82676 2.03977,-4.27534 2.03978,-5.82993 2.03978,-7.31486 2.03977,-8.62182 2.03978,-9.7366 2.03978,-10.67485 4.07955,-23.39351 8.1591,-48.67624 2.03978,-10.85017 2.03977,-9.639562 2.03978,-8.239832 2.03978,-6.790917 2.03977,-5.391263 2.03978,-4.100532 2.03978,-2.963831 2.03977,-2.020643 2.03978,-1.293468 2.03977,-0.775435 2.03978,-0.43214 2.03978,-0.21573 4.07955,-0.07377 14.27843,0.354761 12.23866,-0.518381 14.27843,-0.03993 20.39776,0.108074 14.27844,0.496804 16.31821,-0.572585 6.11933,0.109502 12.23865,0.483617 6.11933,-0.263647 6.11933,-0.273337 8.15911,-0.08491 24.47731,0.04476 4.07955,0.145399 2.55089,0.190873 v 0"
           style="fill:none;stroke:#e41a1c;stroke-width:3;stroke-linecap:butt;stroke-linejoin:round;stroke-miterlimit:10;stroke-dasharray:11.1, 4.8;stroke-dashoffset:0;stroke-opacity:1"
           id="path228" /></g></g><g
       id="g230"><g
         id="g232"
         clip-path="url(#clipPath236)"><path
           d="m 450.81268,59.84226 1.70322,0.81887 0.85161,0.599192 0.85161,0.765078 0.8516,0.965613 0.85161,1.204594 0.85161,1.485253 0.85161,1.809931 0.85161,2.17974 0.85161,2.594213 0.85161,3.050983 0.8516,3.545524 0.85161,4.070964 1.70322,9.793205 1.70322,11.99198 1.70321,13.97224 2.55483,23.5523 3.40643,32.08045 1.70322,14.30105 1.70322,12.08279 0.8516,5.03456 0.85161,4.30445 0.85161,3.55278 0.85161,2.79705 0.85161,2.05345 0.85161,1.33629 0.85161,0.65761 0.85161,0.0269 0.8516,-0.54881 0.85161,-1.06516 0.85161,-1.51999 0.85161,-1.91327 1.70322,-4.76957 1.70321,-5.66821 2.55483,-9.41235 5.96126,-22.44195 3.40643,-11.98239 3.40643,-11.29159 3.40644,-10.58958 2.55482,-7.22187 1.70322,-4.25746 1.70322,-3.63876 1.70321,-2.87319 0.85161,-1.11073 0.85161,-0.87836 0.85161,-0.63906 0.85161,-0.39679 0.85161,-0.15562 0.85161,0.0805 0.8516,0.30766 0.85161,0.5226 0.85161,0.72238 0.85161,0.90463 1.70322,2.27759 1.70321,2.76191 2.55483,4.67491 3.40643,6.34873 1.70322,2.86259 1.70322,2.44992 1.70321,1.89683 0.85161,0.70301 0.85161,0.52327 0.85161,0.33479 0.85161,0.14078 0.85161,-0.0553 0.8516,-0.24961 0.85161,-0.43855 0.85161,-0.61843 0.85161,-0.78595 1.70322,-2.01108 1.70321,-2.47203 2.55483,-4.22455 5.96126,-10.15671 6.81287,-11.23109 2.55482,-4.73788 2.55483,-5.21102 5.10965,-11.22066 2.55482,-5.396421 2.55483,-4.85033 1.70322,-2.84474 1.70321,-2.518199 1.70322,-2.208443 1.70322,-1.933986 2.55482,-2.48492 2.55483,-2.117302 2.55482,-1.860278 3.40644,-2.164911 2.55482,-1.382269 2.55483,-1.14427 2.55482,-0.885997 2.55483,-0.633649 2.55482,-0.415201 3.40644,-0.302982 5.10965,-0.158624 v 0"
           style="fill:none;stroke:#377eb8;stroke-width:3;stroke-linecap:butt;stroke-linejoin:round;stroke-miterlimit:10;stroke-dasharray:11.1, 4.8;stroke-dashoffset:0;stroke-opacity:1"
           id="path238" /></g></g><g
       id="g240"><path
         d="m 432.17875,58.85625 v 193.96"
         style="fill:none;stroke:#262626;stroke-width:0.8;stroke-linecap:square;stroke-linejoin:miter;stroke-miterlimit:10;stroke-dasharray:none;stroke-opacity:1"
         id="path242" /><path
         d="m 778.76375,58.85625 v 193.96"
         style="fill:none;stroke:#262626;stroke-width:0.8;stroke-linecap:square;stroke-linejoin:miter;stroke-miterlimit:10;stroke-dasharray:none;stroke-opacity:1"
         id="path244" /><path
         d="m 432.17875,58.85625 h 346.585"
         style="fill:none;stroke:#262626;stroke-width:0.8;stroke-linecap:square;stroke-linejoin:miter;stroke-miterlimit:10;stroke-dasharray:none;stroke-opacity:1"
         id="path246" /><path
         d="m 432.17875,252.81625 h 346.585"
         style="fill:none;stroke:#262626;stroke-width:0.8;stroke-linecap:square;stroke-linejoin:miter;stroke-miterlimit:10;stroke-dasharray:none;stroke-opacity:1"
         id="path248" /><g
         id="g250"
         transform="translate(488.19,258.81625)"><text
           transform="scale(1,-1)"
           style="font-variant:normal;font-weight:normal;font-size:22px;font-family:'DejaVu Serif';-inkscape-font-specification:DejaVuSerif;writing-mode:lr-tb;fill:#262626;fill-opacity:1;fill-rule:nonzero;stroke:none"
           id="text254"><tspan
             x="0 14.674 29.743999 36.740002 55.571999 62.612 71.456001 85.624001 92.620003 113.476 120.516 131.802 143.088 150.12801 164.29601 178.37601 185.37199 199.452 212.564 221.408"
             y="0"
             sodipodi:role="line"
             id="tspan252">TS with missing data</tspan></text></g><path
         d="m 671.595,159.15062 h 94.56875 c 2.4,0 3.6,1.2 3.6,3.6 v 77.46563 c 0,2.4 -1.2,3.6 -3.6,3.6 H 671.595 c -2.4,0 -3.6,-1.2 -3.6,-3.6 v -77.46563 c 0,-2.4 1.2,-3.6 3.6,-3.6 z"
         style="fill:#ffffff;fill-opacity:0.8;fill-rule:nonzero;stroke:#cccccc;stroke-width:1;stroke-linecap:butt;stroke-linejoin:miter;stroke-miterlimit:10;stroke-dasharray:none;stroke-opacity:0.8"
         id="path256" /><path
         d="m 675.195,229.24437 h 18 18"
         style="fill:none;stroke:#808080;stroke-width:3;stroke-linecap:round;stroke-linejoin:round;stroke-miterlimit:10;stroke-dasharray:none;stroke-opacity:1"
         id="path258" /><g
         id="g260"
         transform="translate(725.595,222.94437)"><text
           transform="scale(1,-1)"
           style="font-variant:normal;font-weight:normal;font-size:18px;font-family:'DejaVu Serif';-inkscape-font-specification:DejaVuSerif;writing-mode:lr-tb;fill:#262626;fill-opacity:1;fill-rule:nonzero;stroke:none"
           id="text264"><tspan
             x="0 14.382"
             y="0"
             sodipodi:role="line"
             id="tspan262">GT</tspan></text></g><path
         d="m 675.195,202.8225 h 18 18"
         style="fill:none;stroke:#e41a1c;stroke-width:3;stroke-linecap:butt;stroke-linejoin:round;stroke-miterlimit:10;stroke-dasharray:11.1, 4.8;stroke-dashoffset:0;stroke-opacity:1"
         id="path266" /><g
         id="g268"
         transform="translate(725.595,196.5225)"><text
           transform="scale(1,-1)"
           style="font-variant:normal;font-weight:normal;font-size:18px;font-family:'DejaVu Serif';-inkscape-font-specification:DejaVuSerif;writing-mode:lr-tb;fill:#262626;fill-opacity:1;fill-rule:nonzero;stroke:none"
           id="text272"><tspan
             x="0 11.952"
             y="0"
             sodipodi:role="line"
             id="tspan270">LS</tspan></text></g><path
         d="m 675.195,176.40062 h 18 18"
         style="fill:none;stroke:#377eb8;stroke-width:3;stroke-linecap:butt;stroke-linejoin:round;stroke-miterlimit:10;stroke-dasharray:11.1, 4.8;stroke-dashoffset:0;stroke-opacity:1"
         id="path274" /><g
         id="g276"
         transform="translate(725.595,170.10062)"><text
           transform="scale(1,-1)"
           style="font-variant:normal;font-weight:normal;font-size:18px;font-family:'DejaVu Serif';-inkscape-font-specification:DejaVuSerif;writing-mode:lr-tb;fill:#262626;fill-opacity:1;fill-rule:nonzero;stroke:none"
           id="text280"><tspan
             x="0 12.492 24.983999"
             y="0"
             sodipodi:role="line"
             id="tspan278">FFT</tspan></text></g></g></g></svg>
